<?xml version="1.0" encoding="utf-8"?>
<svg xmlns="http://www.w3.org/2000/svg" version="1.1" viewBox="0 0 1400 440">
	<title>The titlepage for the Standard Ebooks edition of My Life in China and America, by Yung Wing</title>
	<g aria-label="MY LIFE IN CHINA">
		<path d="M312.46,130.00l-3.65-45.75l-0.47,0.00l-15.81,45.29l-10.48,0.00l-15.81-45.29l-0.47,0.00l-3.65,45.75l-17.59,0.00l6.92-77.19l18.71,0.00l17.12,44.54l17.12-44.54l18.71,0.00l6.92,77.19l-17.59,0.00z"/>
		<path d="M325.32,52.81l21.15,0.00l16.09,24.70l16.09-24.70l21.15,0.00l-28.44,42.57l0.00,34.62l-17.59,0.00l0.00-34.62z"/>
		<path d="M455.75,52.81l0.00,61.75l26.57,0.00l0.00,15.44l-44.16,0.00l0.00-77.19l17.59,0.00z"/>
		<path d="M513.61,52.81l0.00,77.19l-17.59,0.00l0.00-77.19l17.59,0.00z"/>
		<path d="M574.47,52.81l0.00,15.44l-27.04,0.00l0.00,15.35l24.98,0.00l0.00,15.44l-24.98,0.00l0.00,30.97l-17.59,0.00l0.00-77.19l44.63,0.00z"/>
		<path d="M632.06,52.81l0.00,15.44l-26.57,0.00l0.00,15.35l25.45,0.00l0.00,15.44l-25.45,0.00l0.00,15.53l26.57,0.00l0.00,15.44l-44.16,0.00l0.00-77.19l44.16,0.00z"/>
		<path d="M695.30,52.81l0.00,77.19l-17.59,0.00l0.00-77.19l17.59,0.00z"/>
		<path d="M729.11,82.09l0.00,47.91l-17.59,0.00l0.00-77.19l17.59,0.00l30.69,47.91l0.19,0.00l0.00-47.91l17.59,0.00l0.00,77.19l-17.59,0.00l-30.69-47.91l-0.19,0.00z"/>
		<path d="M862.44,114.09c8.98,0.00,15.16-4.77,15.16-4.77l7.49,14.97s-8.61,7.11-25.36,7.11c-21.80,0.00-41.82-17.78-41.82-39.86c0.00-22.18,19.93-40.14,41.82-40.14c16.75,0.00,25.36,7.11,25.36,7.11l-7.49,14.97s-6.18-4.77-15.16-4.77c-17.68,0.00-25.45,12.35-25.45,22.64c0.00,10.39,7.77,22.74,25.45,22.74z"/>
		<path d="M914.41,99.03l0.00,30.97l-17.59,0.00l0.00-77.19l17.59,0.00l0.00,30.78l24.89,0.00l0.00-30.78l17.59,0.00l0.00,77.19l-17.59,0.00l0.00-30.97l-24.89,0.00z"/>
		<path d="M990.70,52.81l0.00,77.19l-17.59,0.00l0.00-77.19l17.59,0.00z"/>
		<path d="M1024.52,82.09l0.00,47.91l-17.59,0.00l0.00-77.19l17.59,0.00l30.69,47.91l0.19,0.00l0.00-47.91l17.59,0.00l0.00,77.19l-17.59,0.00l-30.69-47.91l-0.19,0.00z"/>
		<path d="M1128.42,52.81l31.16,77.19l-18.90,0.00l-5.71-15.44l-29.38,0.00l-5.71,15.44l-18.90,0.00l31.16-77.19l16.28,0.00z  M1128.99,99.12l-8.61-22.46l-0.19,0.00l-8.61,22.46l17.40,0.00z"/>
	</g>
	<g aria-label="AND AMERICA">
		<path d="M370.81,152.81l31.16,77.19l-18.90,0.00l-5.71-15.44l-29.38,0.00l-5.71,15.44l-18.90,0.00l31.16-77.19l16.28,0.00z  M371.37,199.12l-8.61-22.46l-0.19,0.00l-8.61,22.46l17.40,0.00z"/>
		<path d="M427.56,182.09l0.00,47.91l-17.59,0.00l0.00-77.19l17.59,0.00l30.69,47.91l0.19,0.00l0.00-47.91l17.59,0.00l0.00,77.19l-17.59,0.00l-30.69-47.91l-0.19,0.00z"/>
		<path d="M492.25,152.81l22.36,0.00c21.15,0.00,38.92,16.09,38.92,38.55c0.00,22.55-17.68,38.64-38.92,38.64l-22.36,0.00l0.00-77.19z  M509.84,214.28l2.71,0.00c13.01,0.00,21.89-9.92,21.99-22.83c0.00-12.91-8.89-22.92-21.99-22.92l-2.71,0.00l0.00,45.75z"/>
		<path d="M636.05,152.81l31.16,77.19l-18.90,0.00l-5.71-15.44l-29.38,0.00l-5.71,15.44l-18.90,0.00l31.16-77.19l16.28,0.00z  M636.61,199.12l-8.61-22.46l-0.19,0.00l-8.61,22.46l17.40,0.00z"/>
		<path d="M739.02,230.00l-3.65-45.75l-0.47,0.00l-15.81,45.29l-10.48,0.00l-15.81-45.29l-0.47,0.00l-3.65,45.75l-17.59,0.00l6.92-77.19l18.71,0.00l17.12,44.54l17.12-44.54l18.71,0.00l6.92,77.19l-17.59,0.00z"/>
		<path d="M812.88,152.81l0.00,15.44l-26.57,0.00l0.00,15.35l25.45,0.00l0.00,15.44l-25.45,0.00l0.00,15.53l26.57,0.00l0.00,15.44l-44.16,0.00l0.00-77.19l44.16,0.00z"/>
		<path d="M827.99,152.81l27.60,0.00c14.32,0.00,25.17,7.77,25.17,22.92c0.00,11.60-6.36,19.37-15.81,22.36l26.57,31.91l-22.36,0.00l-23.58-30.50l0.00,30.50l-17.59,0.00l0.00-77.19z  M845.58,187.05l2.06,0.00c6.64,0.00,14.60-0.47,14.60-10.11s-7.95-10.11-14.60-10.11l-2.06,0.00l0.00,20.21z"/>
		<path d="M917.57,152.81l0.00,77.19l-17.59,0.00l0.00-77.19l17.59,0.00z"/>
		<path d="M971.88,214.09c8.98,0.00,15.16-4.77,15.16-4.77l7.49,14.97s-8.61,7.11-25.36,7.11c-21.80,0.00-41.82-17.78-41.82-39.86c0.00-22.18,19.93-40.14,41.82-40.14c16.75,0.00,25.36,7.11,25.36,7.11l-7.49,14.97s-6.18-4.77-15.16-4.77c-17.68,0.00-25.45,12.35-25.45,22.64c0.00,10.39,7.77,22.74,25.45,22.74z"/>
		<path d="M1045.47,152.81l31.16,77.19l-18.90,0.00l-5.71-15.44l-29.38,0.00l-5.71,15.44l-18.90,0.00l31.16-77.19l16.28,0.00z  M1046.03,199.12l-8.61-22.46l-0.19,0.00l-8.61,22.46l17.40,0.00z"/>
	</g>
	<g aria-label="YUNG WING">
		<path d="M453.09,332.11l15.86,0.00l12.07,18.53l12.07-18.53l15.86,0.00l-21.33,31.93l0.00,25.96l-13.19,0.00l0.00-25.96z"/>
		<path d="M560.54,332.11l0.00,37.33c0.00,14.32-7.86,21.61-22.60,21.61s-22.60-7.30-22.60-21.61l0.00-37.33l13.19,0.00l0.00,33.47c0.00,9.68,2.95,12.49,9.40,12.49s9.40-2.81,9.40-12.49l0.00-33.47l13.19,0.00z"/>
		<path d="M586.46,354.07l0.00,35.93l-13.19,0.00l0.00-57.89l13.19,0.00l23.02,35.93l0.14,0.00l0.00-35.93l13.19,0.00l0.00,57.89l-13.19,0.00l-23.02-35.93l-0.14,0.00z"/>
		<path d="M688.58,357.58l0.00,12.56c-3.16,14.67-15.37,20.91-26.74,20.91c-15.58,0.00-28.21-13.40-28.21-29.96c0.00-16.63,11.93-30.04,28.21-30.04c10.18,0.00,17.26,3.79,22.32,9.89l-8.63,9.47c-3.37-5.40-7.79-7.44-12.91-7.44c-8.14,0.00-14.74,8.07-14.74,18.11c0.00,9.82,6.60,17.82,14.74,17.82c6.32,0.00,12.56-4.07,12.56-11.16l-13.33,0.00l0.00-10.18l26.74,0.00z"/>
		<path d="M762.02,390.00l-9.26-32.49l-9.26,32.49l-14.67,0.00l-16.49-57.89l14.67,0.00l9.89,39.72l0.35,0.00l10.53-39.72l9.96,0.00l10.53,39.72l0.35,0.00l9.89-39.72l14.60,0.00l-16.49,57.89l-14.60,0.00z"/>
		<path d="M814.46,332.11l0.00,57.89l-13.19,0.00l0.00-57.89l13.19,0.00z"/>
		<path d="M841.07,354.07l0.00,35.93l-13.19,0.00l0.00-57.89l13.19,0.00l23.02,35.93l0.14,0.00l0.00-35.93l13.19,0.00l0.00,57.89l-13.19,0.00l-23.02-35.93l-0.14,0.00z"/>
		<path d="M943.19,357.58l0.00,12.56c-3.16,14.67-15.37,20.91-26.74,20.91c-15.58,0.00-28.21-13.40-28.21-29.96c0.00-16.63,11.93-30.04,28.21-30.04c10.18,0.00,17.26,3.79,22.32,9.89l-8.63,9.47c-3.37-5.40-7.79-7.44-12.91-7.44c-8.14,0.00-14.74,8.07-14.74,18.11c0.00,9.82,6.60,17.82,14.74,17.82c6.32,0.00,12.56-4.07,12.56-11.16l-13.33,0.00l0.00-10.18l26.74,0.00z"/>
	</g>
</svg>
